PathFileType	4	(X/Y/Z)	E-squat_0-154.trc
DataRate	CameraRate	NumFrames	NumMarkers	Units	OrigDataRate	OrigDataStartFrame	OrigNumFrames
30	30	9	22	m	30	115	154
Frame#	Time	Hip			RHip			RKnee			RAnkle			RBigToe			RSmallToe			RHeel			LHip			LKnee			LAnkle			LBigToe			LSmallToe			LHeel			Neck			Head			Nose			RShoulder			RElbow			RWrist			LShoulder			LElbow			LWrist			
		X1	Y1	Z1	X2	Y2	Z2	X3	Y3	Z3	X4	Y4	Z4	X5	Y5	Z5	X6	Y6	Z6	X7	Y7	Z7	X8	Y8	Z8	X9	Y9	Z9	X10	Y10	Z10	X11	Y11	Z11	X12	Y12	Z12	X13	Y13	Z13	X14	Y14	Z14	X15	Y15	Z15	X16	Y16	Z16	X17	Y17	Z17	X18	Y18	Z18	X19	Y19	Z19	X20	Y20	Z20	X21	Y21	Z21	X22	Y22	Z22	
115	3.8333333333333335	0.6842151966091011	0.18181494586100735	0.19141234178514832	0.5890159943373791	0.13054528768084142	0.16127278499770245	0.585953514947781	0.15293730542990253	-0.23709439369929353	0.5688695103898282	0.16320088603768892	-0.6185223584214516	0.7126657867324713	0.03183977073901334	-0.6970143137671703	0.6350258231608376	0.026597061628253243	-0.7079321988460316	0.5587085836783516	0.1967890481000812	-0.695951052008325	0.7764436838882912	0.22723190179078773	0.17233729732219188	0.7709548587167112	0.296169084047416	-0.23947015449798806	0.7810929428327094	0.33117145730998093	-0.6169319869888271	0.8889884315145797	0.19714893811074952	-0.692195359890846	0.9277600559585548	0.24509028622372167	-0.6822706169885423	0.7574079918155349	0.34653434577760156	-0.6753936476410423	0.6777960180766901	0.12237514239252709	0.7977811675535805	0.6686306419647705	0.1040839283520033	1.03367843087736	0.7207587847220609	0.016955159946309195	0.8925176675206961	0.5392998805214407	0.06339575804000845	0.6971616399299844	0.49278739241786446	0.08234599011429718	0.4123536957858672	0.5121445560930756	0.032672195415669604	0.16239146080800784	0.8185609226736852	0.20758778299976516	0.7259376160030324	0.8548885902360684	0.25877668739060694	0.4368986772578807	0.9306070706594022	0.23406694803475322	0.20044120755930545
116	3.8666666666666667	0.6821231797572457	0.18766598232643592	0.1954299169477294	0.5827554162493556	0.1397935925881282	0.16795874217832701	0.5908554611583747	0.15106293745478735	-0.23481564545730113	0.5734440143704137	0.16146072317784452	-0.618215627296094	0.7064003449357192	0.03294498962692992	-0.6956361066354043	0.6362860652619982	0.027548837639011253	-0.7034947553764676	0.5603841373234617	0.19941254445904777	-0.6936575898856892	0.77092664458584	0.22993291362242574	0.1764694981505123	0.7686530456494138	0.2949528230078328	-0.23434132343682834	0.7830485120992209	0.33399170116369253	-0.6167311752324122	0.8906678637524997	0.1984187086509438	-0.6904062726164849	0.9252625926274083	0.24334788832613838	-0.6828023925074915	0.75108103606247	0.34988836956583036	-0.6739316973761341	0.6848703893545903	0.12041226050182506	0.796293242331265	0.6796569284418962	0.09095610826496135	1.0262384584421411	0.7392005515741973	0.016490928414548904	0.887584753324604	0.5367528708833263	0.05416441393637488	0.6950551464703166	0.4939789288328095	0.07677464443137609	0.41249954925795346	0.5133226984929561	0.034026481164425276	0.16120885072497537	0.825231523077594	0.20526989760429667	0.7262012044765873	0.8573099080083723	0.26070184538034824	0.4369923551766437	0.9267102300774562	0.24490922747570612	0.19335272093451844
117	3.9	0.6766643204057798	0.18972266812779884	0.1934608173414977	0.5817773647024466	0.14516562431311258	0.16430335917447048	0.5946144133923582	0.14540539655672116	-0.23245974946398984	0.5695424506954159	0.16311272877557262	-0.6172808822284294	0.7089050255183851	0.035388124314560544	-0.6941953388607288	0.6357574781349998	0.033448575916710174	-0.7030129942567171	0.559184081094871	0.19665587655810016	-0.6890401047376845	0.7729449129039078	0.23148338658941955	0.17291903852492765	0.7722366023370255	0.28865380997388507	-0.23405723810081663	0.7812140828812492	0.3315609469096463	-0.6115282118270573	0.8897567103486096	0.19747717890936767	-0.6852059014994007	0.9244841946817122	0.24972830177510974	-0.6794458332941072	0.7468003841851477	0.351477745851798	-0.6731617712191897	0.6864969077955226	0.1151012854246479	0.7920441815732696	0.6810759005639931	0.085758982582388	1.026030386385251	0.7475638238826072	0.011213381640737787	0.8909292661120325	0.5386967648113737	0.055886023740626435	0.6979035891622861	0.49161252189247645	0.07452748332766881	0.4161672440746648	0.5114605967076997	0.032204802899273445	0.1687199227791803	0.8266636650933272	0.19993721327090833	0.7211322028356442	0.854719524612818	0.25904688452925	0.43948753538686886	0.9309112976234705	0.23435644400158917	0.20051515941212367
118	3.933333333333333	0.6638654465447235	0.19978653376956262	0.19531061995110824	0.5688424427572352	0.15442856753657866	0.16614731327106186	0.5991572316574083	0.1431372264995069	-0.23297853355727416	0.5707913583148049	0.16454322656697787	-0.6212444441864017	0.7060534624707436	0.033633277944512145	-0.6975900915352217	0.6363046539760924	0.027985870365838127	-0.705240343840239	0.5615213206560278	0.1984393867144459	-0.6954903501672576	0.7600538408615669	0.2423649036431861	0.1774011093575758	0.7806288900961997	0.2816278340774702	-0.23472687053456923	0.7861559119821837	0.3284662223057925	-0.6161250399841641	0.8912735521375458	0.19164410727679956	-0.6855768194940997	0.9225247837330125	0.24811220860901734	-0.67509878053189	0.7596104206053047	0.3482376961584664	-0.6725533985068861	0.6963821019900747	0.10190523197686772	0.7913419641626681	0.6919477162580022	0.06845503651404125	1.0211568571960128	0.760438496979339	-0.005110069836215506	0.8814026563527684	0.5438813438773037	0.04687359577272194	0.6924388512467392	0.4943406376478938	0.07633183050347864	0.4120841050364518	0.5166371052529282	0.023289300208092226	0.1674938176219731	0.8329354785130461	0.1898175611127744	0.7173516782419778	0.8532398764249365	0.26513826790538847	0.43975636254760314	0.9082856056734973	0.2678303810272347	0.192130851160587
119	3.966666666666667	0.6528306484178175	0.2120915204293423	0.19247711482557317	0.5575564441062381	0.1661628648276719	0.16859759754149597	0.6026557429579474	0.13239541898010343	-0.23244574939117807	0.5708107120899155	0.16518019434455197	-0.622018638239286	0.7061818737489626	0.03354452796484475	-0.6930511407788587	0.6329976702527559	0.031692753914390095	-0.701664188490618	0.5610666397520568	0.1990651983470461	-0.690772068029778	0.7524200196358963	0.2431852439056905	0.17446597382726825	0.780294632476533	0.27394809958683736	-0.23425586412201857	0.7866367915339505	0.3290165827989065	-0.6188878994762043	0.8925004210723613	0.19389347624244305	-0.6906514490489084	0.9280097919375005	0.24636186344858335	-0.6811268086294777	0.7513304823529648	0.34895828464436784	-0.6774452901487982	0.6998241168896113	0.0908689980925977	0.7822979592759947	0.7000873824437178	0.06082741595524196	1.0176760315809235	0.7732645125486335	-0.01664038027559659	0.875043238397722	0.5470280209241507	0.03644771607542667	0.6892365161235366	0.48996439349394605	0.07307450355847732	0.4121178046435714	0.5129919009262405	0.020160736300273936	0.16475937902093338	0.8370863902640281	0.1856026715280798	0.7108527015744605	0.8534776043128797	0.26504335657370665	0.43436746269557663	0.9080843191008783	0.26741976649449023	0.19150935429528057
120	4.0	0.6386638096076563	0.2239694372809317	0.1872525218330341	0.5434662551176134	0.1770861568467623	0.16855346994455442	0.6110517653733343	0.12125372309916395	-0.23427197143444908	0.575801442427643	0.16505519930866822	-0.6202444676465091	0.7038342758128132	0.03432651946471505	-0.6969203468398436	0.6342603440420131	0.02862517294062249	-0.7048507958079795	0.5627313792330502	0.20277024150501677	-0.6891701183341209	0.7379124550029694	0.2633928531486696	0.1775364831098153	0.7846033207998641	0.2655750726452629	-0.23593406159708077	0.7859182918765022	0.3246474818229281	-0.615309863279236	0.8911084709343461	0.19523580823397674	-0.6876265454931102	0.9264612773351725	0.24736666538852645	-0.6788143315932867	0.7550241926329959	0.34783397672258204	-0.6722931704120655	0.7081435311993836	0.08721299820075756	0.7702159385303808	0.7125675721958581	0.04915749037750804	1.0007372007041793	0.7757159888887026	-0.029901727288753264	0.8618464494942902	0.5583675569234782	0.02950838823044747	0.6801278716769691	0.48300160179378243	0.07643160282522551	0.40713918997160925	0.5139320448051131	0.023913888200885507	0.16103116139006668	0.8443806803917526	0.17396205768336956	0.6993524903536463	0.850058853064876	0.26564090089549997	0.4254394564995444	0.9113454610969193	0.2664806947663504	0.19245037383824434
121	4.033333333333333	0.6124119357845403	0.2497813806932433	0.1750553684653608	0.5175666890018715	0.2016938187252656	0.1614186353278981	0.627852061329912	0.10131826910438177	-0.23085403563946572	0.5750421051153302	0.15605441346057225	-0.620533751631669	0.7043584478746803	0.03658922125983456	-0.6979526041583239	0.63322892032254	0.02782557389765254	-0.7004525868047218	0.559658828280418	0.19774902262292396	-0.6915093088939714	0.7219873077943715	0.2855121981101738	0.16768275695192228	0.8035218888132629	0.24529173232717402	-0.2347552838662136	0.791507940610875	0.3210762436247995	-0.6130859666366095	0.8939740939449693	0.1994710686829348	-0.6890889303988472	0.924602613596403	0.24802909104335893	-0.676985726846843	0.7567642382022657	0.34090351994613066	-0.6767876194167708	0.7296961822703775	0.0677635672523543	0.7389815451538724	0.7415126831636817	0.015729069380648497	0.9696310587316911	0.8054448848248719	-0.04858638665020925	0.8269674995583335	0.5731604616202773	0.012127389917526207	0.6512637018047956	0.4812754796520802	0.07215150580498737	0.3822296568695728	0.5145064560982433	0.016641687235632696	0.13419264345013462	0.863580875541866	0.15906705672228166	0.6719026952375162	0.8637400701792636	0.26109197637389275	0.40279321921490446	0.9309021234751615	0.2525645037079417	0.17390282428885312
122	4.066666666666666	0.6079071819041506	0.25668637052161675	0.14966272607778777	0.511018809556625	0.21180851367050366	0.13764878521520316	0.6366250379166842	0.08882596233257811	-0.24251492174903208	0.5724283691926727	0.15958017758824572	-0.6263364583359494	0.7024282406932739	0.032940369950119924	-0.6983732235330753	0.6352659227028729	0.027120450862854886	-0.7030642710307089	0.5556862582147092	0.1994712809836322	-0.6918839963686736	0.7162000553383433	0.28561303479389144	0.14124748905491027	0.8172934840265317	0.23712209445406257	-0.24329904818680118	0.7941134627514176	0.31612440115192997	-0.6144240154007757	0.8953161854337357	0.1905586317556255	-0.6890195405259826	0.9192780164487775	0.24672873174155047	-0.6792779360756857	0.7669684013112734	0.33416177539600916	-0.672032620911759	0.7332487243027994	0.05687488262603377	0.6991765193503344	0.7495174079156782	0.005336861394308311	0.9257122704539047	0.8128223455920959	-0.057102057817682045	0.7846524149645859	0.5772445256892099	0.0012582611154722736	0.6069882181741032	0.4687807931190829	0.07301927046051988	0.33912869617529445	0.5087759542356315	0.005358596608708793	0.09429769459808188	0.8701199334999465	0.14309792347415012	0.630070762675755	0.8728598652639276	0.25756256132659777	0.3630057798560124	0.9550883950349617	0.2309803948737912	0.14113980640373322
123	4.1	0.5931892084821877	0.2817937748858961	0.1362213057669601	0.4990247241672861	0.23051593485775665	0.11623638457169397	0.6425971638304964	0.08046394406722433	-0.2472073857867006	0.5757854437374909	0.15359396761012595	-0.626013007336191	0.7044490382165106	0.029097717446377	-0.6985257628431686	0.6388528420948393	0.023971111084893883	-0.7032685867335411	0.5573921274770289	0.19684020452455014	-0.6904387969222953	0.695539747093067	0.31446507910934146	0.12424957350845967	0.8225303993543579	0.23385801977179463	-0.25161890579015217	0.7914722332813423	0.31980147422361155	-0.6181227664810787	0.8958924437248779	0.19911678559817944	-0.6913346616719059	0.9214602865033247	0.24995884500529766	-0.6833205414154047	0.7646704858462092	0.33784849730554106	-0.6741087077881553	0.7400418037412548	0.044279838196536435	0.6667011897079488	0.7594541247442024	0.007155290677613438	0.8929693143220259	0.8268809261559135	-0.06814372848346653	0.7530754782442369	0.5917107411472025	-0.018062525140168675	0.573628022085773	0.485442819348546	0.05301039734329216	0.31403144304084896	0.5045892528306487	-3.669043832528696e-05	0.0685269572550451	0.875003106362618	0.14109165608089594	0.5975531626046022	0.8741126198253345	0.2647816152216559	0.3313491492012162	0.9450366325073976	0.2589506405801316	0.09928085397990181
